<svg xmlns="http://www.w3.org/2000/svg" width="24" height="24" viewBox="0 0 24 24"><path fill="white" d="M19.05 4.91A9.816 9.816 0 0 0 12.03 2c-5.46 0-9.91 4.45-9.91 9.91c0 1.75.46 3.45 1.32 4.95L2.05 22l5.25-1.38c1.45.79 3.08 1.21 4.74 1.21c5.46 0 9.91-4.45 9.91-9.91c0-2.65-1.03-5.14-2.9-7.01m-7.02 15.19c-1.48 0-2.93-.4-4.19-1.15l-.3-.18l-3.12.82l.83-3.04l-.2-.32a8.188 8.188 0 0 1-1.26-4.33c0-4.51 3.67-8.19 8.18-8.19c2.19 0 4.25.85 5.8 2.4c1.55 1.55 2.4 3.61 2.4 5.8c0 4.52-3.67 8.19-8.18 8.19m4.48-6.13c-.24-.12-1.45-.72-1.68-.8s-.38-.12-.54.12s-.62.8-.76.96s-.28.18-.52.06c-.24-.12-.99-.36-1.89-1.16c-.7-.62-1.17-1.39-1.31-1.63s-.01-.37.11-.49c.11-.11.24-.28.37-.42s.17-.24.25-.4s.04-.31-.02-.43s-.54-1.31-.74-1.8c-.2-.48-.4-.42-.54-.42c-.14 0-.3 0-.46 0s-.42.06-.64.3c-.22.24-.85.83-.85 2.03s.87 2.35 1 2.5c.13.15 1.71 2.61 4.14 3.66c.58.25 1.03.4 1.38.51c.58.18 1.11.16 1.53.1c.47-.07 1.45-.59 1.65-1.17c.2-.58.2-1.07.14-1.17s-.22-.19-.46-.31Z"/></svg>